<mxfile host="app.diagrams.net" modified="2020-11-12T08:33:27.918Z" agent="5.0 (Macintosh; Intel Mac OS X 10_15_7) AppleWebKit/537.36 (KHTML, like Gecko) Chrome/86.0.4240.193 Safari/537.36" etag="AUCAqud6sh7Efu12PrGz" version="13.9.7" type="github">
  <diagram id="TVGfRt7p-69sMcdeizTA" name="Page-1">
    <mxGraphModel dx="770" dy="523" grid="1" gridSize="10" guides="1" tooltips="1" connect="1" arrows="1" fold="1" page="1" pageScale="1" pageWidth="850" pageHeight="1100" math="0" shadow="0">
      <root>
        <mxCell id="0" />
        <mxCell id="1" parent="0" />
        <mxCell id="Uw5UVaH-zzM0wg64r6FO-1" value="SWIFT VIPER &lt;br style=&quot;font-size: 15px;&quot;&gt;Template Generator" style="text;html=1;fillColor=#ffe6cc;align=center;verticalAlign=middle;whiteSpace=wrap;rounded=0;fontSize=15;" vertex="1" parent="1">
          <mxGeometry x="200" y="80" width="240" height="70" as="geometry" />
        </mxCell>
      </root>
    </mxGraphModel>
  </diagram>
</mxfile>
